<mxfile host="app.diagrams.net" modified="2022-01-19T10:23:30.330Z" agent="5.0 (Windows NT 10.0; Win64; x64) AppleWebKit/537.36 (KHTML, like Gecko) Chrome/96.0.4664.93 Safari/537.36" etag="6_Nw0vKnIHvJW9T2HEXH" version="16.2.4" type="github">
  <diagram id="qe4p03_1a4LAuUfQ9uy5" name="Page-1">
    <mxGraphModel dx="1796" dy="836" grid="1" gridSize="10" guides="1" tooltips="1" connect="1" arrows="1" fold="1" page="1" pageScale="1" pageWidth="827" pageHeight="1169" math="0" shadow="0">
      <root>
        <mxCell id="0" />
        <mxCell id="1" parent="0" />
        <mxCell id="yZ0qCinRQj4NqwLvFhF5-1" value="表结构(vss_heatmap_count)&lt;br&gt;DeviceId&lt;br&gt;StartTime&lt;br&gt;EndTime&lt;br&gt;Count&lt;br&gt;AiCode&lt;br&gt;" style="rounded=1;whiteSpace=wrap;html=1;" vertex="1" parent="1">
          <mxGeometry x="10" y="870" width="160" height="120" as="geometry" />
        </mxCell>
        <mxCell id="yZ0qCinRQj4NqwLvFhF5-5" value="" style="edgeStyle=orthogonalEdgeStyle;rounded=0;orthogonalLoop=1;jettySize=auto;html=1;exitX=0.5;exitY=1;exitDx=0;exitDy=0;entryX=0.5;entryY=0;entryDx=0;entryDy=0;" edge="1" parent="1" source="yZ0qCinRQj4NqwLvFhF5-4" target="yZ0qCinRQj4NqwLvFhF5-7">
          <mxGeometry relative="1" as="geometry">
            <mxPoint x="470" y="250" as="targetPoint" />
          </mxGeometry>
        </mxCell>
        <mxCell id="yZ0qCinRQj4NqwLvFhF5-4" value="开始" style="rounded=1;whiteSpace=wrap;html=1;" vertex="1" parent="1">
          <mxGeometry x="406" y="90" width="120" height="60" as="geometry" />
        </mxCell>
        <mxCell id="yZ0qCinRQj4NqwLvFhF5-10" style="edgeStyle=orthogonalEdgeStyle;rounded=0;orthogonalLoop=1;jettySize=auto;html=1;exitX=0.5;exitY=1;exitDx=0;exitDy=0;" edge="1" parent="1" source="yZ0qCinRQj4NqwLvFhF5-7" target="yZ0qCinRQj4NqwLvFhF5-9">
          <mxGeometry relative="1" as="geometry" />
        </mxCell>
        <mxCell id="yZ0qCinRQj4NqwLvFhF5-7" value="初始化定义Map&amp;lt;DeviceId,data&amp;gt;&lt;br&gt;stratTime=lastTime = timestamp&lt;br&gt;" style="rounded=0;whiteSpace=wrap;html=1;" vertex="1" parent="1">
          <mxGeometry x="380" y="230" width="172" height="60" as="geometry" />
        </mxCell>
        <mxCell id="yZ0qCinRQj4NqwLvFhF5-8" value="&lt;b&gt;data&lt;/b&gt;&lt;br&gt;stratTime&lt;br&gt;lastTime&lt;br&gt;endTime&lt;br&gt;count" style="whiteSpace=wrap;html=1;aspect=fixed;" vertex="1" parent="1">
          <mxGeometry x="680" y="90" width="90" height="90" as="geometry" />
        </mxCell>
        <mxCell id="yZ0qCinRQj4NqwLvFhF5-21" style="edgeStyle=orthogonalEdgeStyle;rounded=0;orthogonalLoop=1;jettySize=auto;html=1;exitX=0.5;exitY=1;exitDx=0;exitDy=0;entryX=0.5;entryY=0;entryDx=0;entryDy=0;" edge="1" parent="1" source="yZ0qCinRQj4NqwLvFhF5-9" target="yZ0qCinRQj4NqwLvFhF5-19">
          <mxGeometry relative="1" as="geometry" />
        </mxCell>
        <mxCell id="yZ0qCinRQj4NqwLvFhF5-9" value="等待接受kafka消息" style="rounded=0;whiteSpace=wrap;html=1;" vertex="1" parent="1">
          <mxGeometry x="380" y="350" width="172" height="70" as="geometry" />
        </mxCell>
        <mxCell id="yZ0qCinRQj4NqwLvFhF5-13" style="edgeStyle=orthogonalEdgeStyle;rounded=0;orthogonalLoop=1;jettySize=auto;html=1;exitX=1;exitY=0.5;exitDx=0;exitDy=0;" edge="1" parent="1" source="yZ0qCinRQj4NqwLvFhF5-11">
          <mxGeometry relative="1" as="geometry">
            <mxPoint x="640" y="830" as="targetPoint" />
          </mxGeometry>
        </mxCell>
        <mxCell id="yZ0qCinRQj4NqwLvFhF5-14" value="N" style="edgeLabel;html=1;align=center;verticalAlign=middle;resizable=0;points=[];" vertex="1" connectable="0" parent="yZ0qCinRQj4NqwLvFhF5-13">
          <mxGeometry x="0.2574" y="-2" relative="1" as="geometry">
            <mxPoint as="offset" />
          </mxGeometry>
        </mxCell>
        <mxCell id="yZ0qCinRQj4NqwLvFhF5-15" style="edgeStyle=orthogonalEdgeStyle;rounded=0;orthogonalLoop=1;jettySize=auto;html=1;exitX=0.5;exitY=1;exitDx=0;exitDy=0;" edge="1" parent="1" source="yZ0qCinRQj4NqwLvFhF5-11">
          <mxGeometry relative="1" as="geometry">
            <mxPoint x="466" y="830" as="targetPoint" />
          </mxGeometry>
        </mxCell>
        <mxCell id="yZ0qCinRQj4NqwLvFhF5-16" value="Y" style="edgeLabel;html=1;align=center;verticalAlign=middle;resizable=0;points=[];" vertex="1" connectable="0" parent="yZ0qCinRQj4NqwLvFhF5-15">
          <mxGeometry x="-0.2557" y="-1" relative="1" as="geometry">
            <mxPoint as="offset" />
          </mxGeometry>
        </mxCell>
        <mxCell id="yZ0qCinRQj4NqwLvFhF5-11" value="最新的消息于之前的lastTime比较是否大于20s？" style="rhombus;whiteSpace=wrap;html=1;" vertex="1" parent="1">
          <mxGeometry x="380" y="620" width="170" height="120" as="geometry" />
        </mxCell>
        <mxCell id="yZ0qCinRQj4NqwLvFhF5-17" value="lastTime = timeStamp" style="rounded=0;whiteSpace=wrap;html=1;" vertex="1" parent="1">
          <mxGeometry x="570" y="830" width="170" height="80" as="geometry" />
        </mxCell>
        <mxCell id="yZ0qCinRQj4NqwLvFhF5-27" style="edgeStyle=orthogonalEdgeStyle;rounded=0;orthogonalLoop=1;jettySize=auto;html=1;entryX=1;entryY=0;entryDx=0;entryDy=75;entryPerimeter=0;" edge="1" parent="1" source="yZ0qCinRQj4NqwLvFhF5-18" target="yZ0qCinRQj4NqwLvFhF5-26">
          <mxGeometry relative="1" as="geometry" />
        </mxCell>
        <mxCell id="yZ0qCinRQj4NqwLvFhF5-28" value="入库" style="edgeLabel;html=1;align=center;verticalAlign=middle;resizable=0;points=[];" vertex="1" connectable="0" parent="yZ0qCinRQj4NqwLvFhF5-27">
          <mxGeometry x="-0.1512" y="4" relative="1" as="geometry">
            <mxPoint as="offset" />
          </mxGeometry>
        </mxCell>
        <mxCell id="yZ0qCinRQj4NqwLvFhF5-18" value="endTime = lastTime+1&lt;br&gt;startTime = timeStamp&lt;br&gt;endTime=null&lt;br&gt;lastTime=startTime&lt;br&gt;count=1" style="rounded=0;whiteSpace=wrap;html=1;" vertex="1" parent="1">
          <mxGeometry x="405.5" y="830" width="154.5" height="80" as="geometry" />
        </mxCell>
        <mxCell id="yZ0qCinRQj4NqwLvFhF5-22" value="N" style="edgeStyle=orthogonalEdgeStyle;rounded=0;orthogonalLoop=1;jettySize=auto;html=1;exitX=0.5;exitY=1;exitDx=0;exitDy=0;" edge="1" parent="1" source="yZ0qCinRQj4NqwLvFhF5-19" target="yZ0qCinRQj4NqwLvFhF5-11">
          <mxGeometry relative="1" as="geometry" />
        </mxCell>
        <mxCell id="yZ0qCinRQj4NqwLvFhF5-23" style="edgeStyle=orthogonalEdgeStyle;rounded=0;orthogonalLoop=1;jettySize=auto;html=1;exitX=1;exitY=0.5;exitDx=0;exitDy=0;" edge="1" parent="1" source="yZ0qCinRQj4NqwLvFhF5-19">
          <mxGeometry relative="1" as="geometry">
            <mxPoint x="670" y="515" as="targetPoint" />
          </mxGeometry>
        </mxCell>
        <mxCell id="yZ0qCinRQj4NqwLvFhF5-24" value="Y" style="edgeLabel;html=1;align=center;verticalAlign=middle;resizable=0;points=[];" vertex="1" connectable="0" parent="yZ0qCinRQj4NqwLvFhF5-23">
          <mxGeometry x="-0.1664" y="1" relative="1" as="geometry">
            <mxPoint as="offset" />
          </mxGeometry>
        </mxCell>
        <mxCell id="yZ0qCinRQj4NqwLvFhF5-19" value="Map是否为空？" style="rhombus;whiteSpace=wrap;html=1;" vertex="1" parent="1">
          <mxGeometry x="380" y="460" width="171" height="110" as="geometry" />
        </mxCell>
        <mxCell id="yZ0qCinRQj4NqwLvFhF5-25" value="startTime = timeStamp&lt;br&gt;lastTime=startTime&lt;br&gt;endTime=null&lt;br&gt;count=1" style="rounded=1;whiteSpace=wrap;html=1;" vertex="1" parent="1">
          <mxGeometry x="665" y="485" width="125" height="75" as="geometry" />
        </mxCell>
        <mxCell id="yZ0qCinRQj4NqwLvFhF5-26" value="数据库" style="shape=cylinder3;whiteSpace=wrap;html=1;boundedLbl=1;backgroundOutline=1;size=15;" vertex="1" parent="1">
          <mxGeometry x="190" y="870" width="80" height="110" as="geometry" />
        </mxCell>
        <mxCell id="yZ0qCinRQj4NqwLvFhF5-39" style="edgeStyle=orthogonalEdgeStyle;rounded=0;orthogonalLoop=1;jettySize=auto;html=1;" edge="1" parent="1" source="yZ0qCinRQj4NqwLvFhF5-35" target="yZ0qCinRQj4NqwLvFhF5-38">
          <mxGeometry relative="1" as="geometry" />
        </mxCell>
        <mxCell id="yZ0qCinRQj4NqwLvFhF5-35" value="防疫隐形回收协程（30分钟）" style="rounded=0;whiteSpace=wrap;html=1;" vertex="1" parent="1">
          <mxGeometry x="920" y="230" width="120" height="60" as="geometry" />
        </mxCell>
        <mxCell id="yZ0qCinRQj4NqwLvFhF5-40" value="N" style="edgeStyle=orthogonalEdgeStyle;rounded=0;orthogonalLoop=1;jettySize=auto;html=1;exitX=1;exitY=0.5;exitDx=0;exitDy=0;" edge="1" parent="1" source="yZ0qCinRQj4NqwLvFhF5-38">
          <mxGeometry relative="1" as="geometry">
            <mxPoint x="1170" y="425" as="targetPoint" />
            <Array as="points">
              <mxPoint x="1120" y="425" />
              <mxPoint x="1120" y="425" />
            </Array>
          </mxGeometry>
        </mxCell>
        <mxCell id="yZ0qCinRQj4NqwLvFhF5-41" value="Y" style="edgeStyle=orthogonalEdgeStyle;rounded=0;orthogonalLoop=1;jettySize=auto;html=1;exitX=0.5;exitY=1;exitDx=0;exitDy=0;" edge="1" parent="1" source="yZ0qCinRQj4NqwLvFhF5-38">
          <mxGeometry relative="1" as="geometry">
            <mxPoint x="980" y="570" as="targetPoint" />
          </mxGeometry>
        </mxCell>
        <mxCell id="yZ0qCinRQj4NqwLvFhF5-38" value="最新时间的消息于之前的lastTime比较是否大于20s？" style="rhombus;whiteSpace=wrap;html=1;" vertex="1" parent="1">
          <mxGeometry x="895" y="365" width="170" height="120" as="geometry" />
        </mxCell>
        <mxCell id="yZ0qCinRQj4NqwLvFhF5-43" value="入库&lt;br&gt;Map置空" style="rounded=0;whiteSpace=wrap;html=1;" vertex="1" parent="1">
          <mxGeometry x="880" y="570" width="170" height="80" as="geometry" />
        </mxCell>
        <mxCell id="yZ0qCinRQj4NqwLvFhF5-44" value="do nothing" style="rounded=0;whiteSpace=wrap;html=1;" vertex="1" parent="1">
          <mxGeometry x="1170" y="385" width="170" height="80" as="geometry" />
        </mxCell>
      </root>
    </mxGraphModel>
  </diagram>
</mxfile>
